# xmcd
#
# Track frame offsets:
#       150
#       13539
#       27035
#       40645
#       51025
#       62796
#       73876
#       84025
#       95481
#       106382
#       116717
#       127673
#       139291
#       148730
#       161349
#       173035
#       182515
#       193474
#       202672
#       213013
#       223715
#       234908
#       249292
#       262261
#       274215
#       285834
#       297531
#       311174
#
# Disc length: 4320 seconds
#
# Revision: 4
# Processed by: cddbd v1.5.2PL0 Copyright (c) Steve Scherf et al.
# Submitted via: FreeDbEdit v0.1
#
DISCID=9410de1c
DTITLE=Various Artist - Confidential Doo Wop, Volume 5
DYEAR=2001
DGENRE=Blues
TTITLE0=Royalnotes - Three Speed Girl
TTITLE1=Joe Medlin - Lord Knows I've Tried
TTITLE2=Spellbinders - Danny Boy
TTITLE3=Vince Howard and Group - If You Believe, If You Believe
TTITLE4=Carl Burnett and The Hustlers - Sweet Memories
TTITLE5=Ravens - There's a Hole in the Middle of the Moon
TTITLE6=Foster Brothers - Never Again
TTITLE7=Souvenirs - It's Too Bad
TTITLE8=Shirelles - My Love Is a Charm
TTITLE9=Joe Medlin - After All I've Been to You
TTITLE10=Fascinators - Tee Vee
TTITLE11=Sinceres - Do You Remember
TTITLE12=Little Willie John and Group - Half a Love
TTITLE13=Downbeats - Darling of Mine
TTITLE14=Herb and His Cronies - In the Middle of a Love
TTITLE15=Tangents - Send Me Something
TTITLE16=Hi Lites - Please Believe I Love You
TTITLE17=Clickettes - Because of My Best Friend
TTITLE18=Pretenders - The Day You Are Mine
TTITLE19=Sugartones - How Can You Forget So Soon
TTITLE20=Shadows - Big Mouth Mama
TTITLE21=Sharps - Love Me My Darling
TTITLE22=Sycamores - Darling Is It True
TTITLE23=Five Wings - Johnny's Still Singing
TTITLE24=Jones Boys - You Make Me Feel Like a Penny Waiting for Change
TTITLE25=Cathy Ryan and Group - Twenty Four Hours a Day
TTITLE26=Sonny Woods and The Twigs - Chapel of Memories
TTITLE27=Majors - You Ran Away With My Heart
EXTD=
EXTT0=
EXTT1=
EXTT2=
EXTT3=
EXTT4=
EXTT5=
EXTT6=
EXTT7=
EXTT8=
EXTT9=
EXTT10=
EXTT11=
EXTT12=
EXTT13=
EXTT14=
EXTT15=
EXTT16=
EXTT17=
EXTT18=
EXTT19=
EXTT20=
EXTT21=
EXTT22=
EXTT23=
EXTT24=
EXTT25=
EXTT26=
EXTT27=
PLAYORDER=
